<svg xmlns="http://www.w3.org/2000/svg" xmlns:xlink="http://www.w3.org/1999/xlink" width="500" zoomAndPan="magnify" viewBox="0 0 375 374.999991" height="500" preserveAspectRatio="xMidYMid meet" version="1.0"><defs><g/></defs><g fill="#110d2c" fill-opacity="0.5294"><g transform="translate(38.834926, 184.4012)"><g><path d="M 1.371094 -8.792969 L 0.542969 0 L 3.558594 0 L 4.027344 -4.964844 L 13.523438 -4.964844 L 13.992188 0 L 17.007812 0 L 16.179688 -8.792969 C 15.980469 -10.976562 14.570312 -12.640625 12.117188 -12.640625 L 5.433594 -12.640625 C 2.980469 -12.640625 1.570312 -10.976562 1.371094 -8.792969 Z M 4.28125 -7.710938 L 4.386719 -8.792969 C 4.441406 -9.425781 4.855469 -9.894531 5.433594 -9.894531 L 12.117188 -9.894531 C 12.695312 -9.894531 13.109375 -9.425781 13.164062 -8.792969 L 13.273438 -7.710938 Z M 4.28125 -7.710938 "/></g></g></g><g fill="#110d2c" fill-opacity="0.5294"><g transform="translate(56.386045, 184.4012)"><g><path d="M 0.722656 0 L 13.109375 0 C 15.566406 0 17.191406 -1.660156 17.191406 -3.847656 C 17.191406 -6.050781 15.566406 -7.710938 13.109375 -7.710938 L 4.804688 -7.710938 C 4.226562 -7.710938 3.738281 -8.160156 3.738281 -8.792969 C 3.738281 -9.425781 4.226562 -9.894531 4.804688 -9.894531 L 17.191406 -9.894531 L 17.191406 -12.640625 L 4.804688 -12.640625 C 2.347656 -12.640625 0.722656 -10.976562 0.722656 -8.792969 C 0.722656 -6.625 2.347656 -4.964844 4.804688 -4.964844 L 13.109375 -4.964844 C 13.6875 -4.964844 14.175781 -4.496094 14.175781 -3.847656 C 14.175781 -3.214844 13.6875 -2.746094 13.109375 -2.746094 L 0.722656 -2.746094 Z M 0.722656 0 "/></g></g></g><g fill="#110d2c" fill-opacity="0.5294"><g transform="translate(74.298305, 184.4012)"><g><path d="M 0.722656 0 L 13.109375 0 C 15.566406 0 17.191406 -1.660156 17.191406 -3.847656 C 17.191406 -6.050781 15.566406 -7.710938 13.109375 -7.710938 L 4.804688 -7.710938 C 4.226562 -7.710938 3.738281 -8.160156 3.738281 -8.792969 C 3.738281 -9.425781 4.226562 -9.894531 4.804688 -9.894531 L 17.191406 -9.894531 L 17.191406 -12.640625 L 4.804688 -12.640625 C 2.347656 -12.640625 0.722656 -10.976562 0.722656 -8.792969 C 0.722656 -6.625 2.347656 -4.964844 4.804688 -4.964844 L 13.109375 -4.964844 C 13.6875 -4.964844 14.175781 -4.496094 14.175781 -3.847656 C 14.175781 -3.214844 13.6875 -2.746094 13.109375 -2.746094 L 0.722656 -2.746094 Z M 0.722656 0 "/></g></g></g><g fill="#110d2c" fill-opacity="0.5294"><g transform="translate(92.210564, 184.4012)"><g><path d="M 0.722656 0 L 11.699219 0 L 11.699219 -2.746094 L 7.726562 -2.746094 L 7.726562 -9.894531 L 11.699219 -9.894531 L 11.699219 -12.640625 L 0.722656 -12.640625 L 0.722656 -9.894531 L 4.695312 -9.894531 L 4.695312 -2.746094 L 0.722656 -2.746094 Z M 0.722656 0 "/></g></g></g><g fill="#110d2c" fill-opacity="0.5294"><g transform="translate(104.633583, 184.4012)"><g><path d="M 0.722656 0 L 13.109375 0 C 15.566406 0 17.191406 -1.660156 17.191406 -3.847656 C 17.191406 -6.050781 15.566406 -7.710938 13.109375 -7.710938 L 4.804688 -7.710938 C 4.226562 -7.710938 3.738281 -8.160156 3.738281 -8.792969 C 3.738281 -9.425781 4.226562 -9.894531 4.804688 -9.894531 L 17.191406 -9.894531 L 17.191406 -12.640625 L 4.804688 -12.640625 C 2.347656 -12.640625 0.722656 -10.976562 0.722656 -8.792969 C 0.722656 -6.625 2.347656 -4.964844 4.804688 -4.964844 L 13.109375 -4.964844 C 13.6875 -4.964844 14.175781 -4.496094 14.175781 -3.847656 C 14.175781 -3.214844 13.6875 -2.746094 13.109375 -2.746094 L 0.722656 -2.746094 Z M 0.722656 0 "/></g></g></g><g fill="#110d2c" fill-opacity="0.5294"><g transform="translate(122.545842, 184.4012)"><g><path d="M 0.722656 -9.894531 L 7.4375 -9.894531 L 7.4375 0 L 10.472656 0 L 10.472656 -9.894531 L 17.191406 -9.894531 L 17.191406 -12.640625 L 0.722656 -12.640625 Z M 0.722656 -9.894531 "/></g></g></g><g fill="#110d2c" fill-opacity="0.5294"><g transform="translate(140.458101, 184.4012)"><g><path d="M 4.804688 0 L 17.191406 0 L 17.191406 -2.746094 L 4.804688 -2.746094 C 4.226562 -2.746094 3.738281 -3.214844 3.738281 -3.847656 L 3.738281 -4.964844 L 11.699219 -4.964844 L 11.699219 -7.710938 L 3.738281 -7.710938 L 3.738281 -8.792969 C 3.738281 -9.425781 4.226562 -9.894531 4.804688 -9.894531 L 17.191406 -9.894531 L 17.191406 -12.640625 L 4.804688 -12.640625 C 2.347656 -12.640625 0.722656 -10.976562 0.722656 -8.9375 L 0.722656 -3.703125 C 0.722656 -1.660156 2.347656 0 4.804688 0 Z M 4.804688 0 "/></g></g></g><g fill="#110d2c" fill-opacity="0.5294"><g transform="translate(158.370361, 184.4012)"><g><path d="M 0.722656 -8.792969 L 0.722656 0 L 3.738281 0 L 3.738281 -8.792969 C 3.738281 -9.425781 4.226562 -9.894531 4.804688 -9.894531 L 13.109375 -9.894531 C 13.6875 -9.894531 14.175781 -9.425781 14.175781 -8.792969 L 14.175781 0 L 17.191406 0 L 17.191406 -8.792969 C 17.191406 -10.976562 15.566406 -12.640625 13.109375 -12.640625 L 4.804688 -12.640625 C 2.347656 -12.640625 0.722656 -10.976562 0.722656 -8.792969 Z M 0.722656 -8.792969 "/></g></g></g><g fill="#110d2c" fill-opacity="0.5294"><g transform="translate(176.28262, 184.4012)"><g><path d="M 0.722656 -9.894531 L 7.4375 -9.894531 L 7.4375 0 L 10.472656 0 L 10.472656 -9.894531 L 17.191406 -9.894531 L 17.191406 -12.640625 L 0.722656 -12.640625 Z M 0.722656 -9.894531 "/></g></g></g><g fill="#110d2c" fill-opacity="0.5294"><g transform="translate(194.19488, 184.4012)"><g><path d="M 4.804688 0 L 17.191406 0 L 17.191406 -2.746094 L 4.804688 -2.746094 C 4.226562 -2.746094 3.738281 -3.214844 3.738281 -3.847656 L 3.738281 -4.964844 L 11.699219 -4.964844 L 11.699219 -7.710938 L 3.738281 -7.710938 L 3.738281 -8.792969 C 3.738281 -9.425781 4.226562 -9.894531 4.804688 -9.894531 L 17.191406 -9.894531 L 17.191406 -12.640625 L 4.804688 -12.640625 C 2.347656 -12.640625 0.722656 -10.976562 0.722656 -8.9375 L 0.722656 -3.703125 C 0.722656 -1.660156 2.347656 0 4.804688 0 Z M 4.804688 0 "/></g></g></g><g fill="#110d2c" fill-opacity="0.5294"><g transform="translate(212.107139, 184.4012)"><g/></g></g><g fill="#110d2c" fill-opacity="0.5294"><g transform="translate(220.052104, 184.4012)"><g><path d="M 5.433594 0 L 12.117188 0 C 14.570312 0 15.980469 -1.660156 16.179688 -3.847656 L 17.007812 -12.640625 L 13.992188 -12.640625 L 13.164062 -3.847656 C 13.109375 -3.214844 12.695312 -2.746094 12.117188 -2.746094 L 5.433594 -2.746094 C 4.855469 -2.746094 4.441406 -3.214844 4.386719 -3.847656 L 3.558594 -12.640625 L 0.542969 -12.640625 L 1.371094 -3.847656 C 1.570312 -1.660156 2.980469 0 5.433594 0 Z M 5.433594 0 "/></g></g></g><g fill="#110d2c" fill-opacity="0.5294"><g transform="translate(237.603224, 184.4012)"><g><path d="M 0.722656 0 L 11.699219 0 L 11.699219 -2.746094 L 7.726562 -2.746094 L 7.726562 -9.894531 L 11.699219 -9.894531 L 11.699219 -12.640625 L 0.722656 -12.640625 L 0.722656 -9.894531 L 4.695312 -9.894531 L 4.695312 -2.746094 L 0.722656 -2.746094 Z M 0.722656 0 "/></g></g></g><g fill="#110d2c" fill-opacity="0.5294"><g transform="translate(250.026242, 184.4012)"><g><path d="M 0.722656 -12.640625 L 0.722656 0 L 3.46875 0 L 3.46875 -4.964844 L 9.046875 -4.964844 L 9.046875 -3.847656 C 9.046875 -1.660156 10.652344 0 13.109375 0 L 17.191406 0 L 17.191406 -2.746094 L 13.109375 -2.746094 C 12.53125 -2.746094 12.0625 -3.214844 12.0625 -3.847656 L 12.0625 -4.964844 L 13.109375 -4.964844 C 15.566406 -4.964844 17.191406 -6.625 17.191406 -8.792969 C 17.191406 -10.976562 15.566406 -12.640625 13.109375 -12.640625 Z M 3.46875 -7.710938 L 3.46875 -9.894531 L 13.109375 -9.894531 C 13.6875 -9.894531 14.175781 -9.425781 14.175781 -8.792969 C 14.175781 -8.160156 13.6875 -7.710938 13.109375 -7.710938 Z M 3.46875 -7.710938 "/></g></g></g><g fill="#110d2c" fill-opacity="0.5294"><g transform="translate(267.938502, 184.4012)"><g><path d="M 0.722656 -9.894531 L 7.4375 -9.894531 L 7.4375 0 L 10.472656 0 L 10.472656 -9.894531 L 17.191406 -9.894531 L 17.191406 -12.640625 L 0.722656 -12.640625 Z M 0.722656 -9.894531 "/></g></g></g><g fill="#110d2c" fill-opacity="0.5294"><g transform="translate(285.850761, 184.4012)"><g><path d="M 4.804688 0 L 13.109375 0 C 15.566406 0 17.191406 -1.660156 17.191406 -3.847656 L 17.191406 -12.640625 L 14.175781 -12.640625 L 14.175781 -3.847656 C 14.175781 -3.214844 13.6875 -2.746094 13.109375 -2.746094 L 4.804688 -2.746094 C 4.226562 -2.746094 3.738281 -3.214844 3.738281 -3.847656 L 3.738281 -12.640625 L 0.722656 -12.640625 L 0.722656 -3.847656 C 0.722656 -1.660156 2.347656 0 4.804688 0 Z M 4.804688 0 "/></g></g></g><g fill="#110d2c" fill-opacity="0.5294"><g transform="translate(303.763021, 184.4012)"><g><path d="M 1.371094 -8.792969 L 0.542969 0 L 3.558594 0 L 4.027344 -4.964844 L 13.523438 -4.964844 L 13.992188 0 L 17.007812 0 L 16.179688 -8.792969 C 15.980469 -10.976562 14.570312 -12.640625 12.117188 -12.640625 L 5.433594 -12.640625 C 2.980469 -12.640625 1.570312 -10.976562 1.371094 -8.792969 Z M 4.28125 -7.710938 L 4.386719 -8.792969 C 4.441406 -9.425781 4.855469 -9.894531 5.433594 -9.894531 L 12.117188 -9.894531 C 12.695312 -9.894531 13.109375 -9.425781 13.164062 -8.792969 L 13.273438 -7.710938 Z M 4.28125 -7.710938 "/></g></g></g><g fill="#110d2c" fill-opacity="0.5294"><g transform="translate(321.31414, 184.4012)"><g><path d="M 4.804688 0 L 17.191406 0 L 17.191406 -2.746094 L 4.804688 -2.746094 C 4.226562 -2.746094 3.738281 -3.214844 3.738281 -3.847656 L 3.738281 -12.640625 L 0.722656 -12.640625 L 0.722656 -3.703125 C 0.722656 -1.660156 2.347656 0 4.804688 0 Z M 4.804688 0 "/></g></g></g><g fill="#110d2c" fill-opacity="1"><g transform="translate(37.301077, 183.286791)"><g><path d="M 1.371094 -8.792969 L 0.542969 0 L 3.558594 0 L 4.027344 -4.964844 L 13.523438 -4.964844 L 13.992188 0 L 17.007812 0 L 16.179688 -8.792969 C 15.980469 -10.976562 14.570312 -12.640625 12.117188 -12.640625 L 5.433594 -12.640625 C 2.980469 -12.640625 1.570312 -10.976562 1.371094 -8.792969 Z M 4.28125 -7.710938 L 4.386719 -8.792969 C 4.441406 -9.425781 4.855469 -9.894531 5.433594 -9.894531 L 12.117188 -9.894531 C 12.695312 -9.894531 13.109375 -9.425781 13.164062 -8.792969 L 13.273438 -7.710938 Z M 4.28125 -7.710938 "/></g></g></g><g fill="#110d2c" fill-opacity="1"><g transform="translate(54.852196, 183.286791)"><g><path d="M 0.722656 0 L 13.109375 0 C 15.566406 0 17.191406 -1.660156 17.191406 -3.847656 C 17.191406 -6.050781 15.566406 -7.710938 13.109375 -7.710938 L 4.804688 -7.710938 C 4.226562 -7.710938 3.738281 -8.160156 3.738281 -8.792969 C 3.738281 -9.425781 4.226562 -9.894531 4.804688 -9.894531 L 17.191406 -9.894531 L 17.191406 -12.640625 L 4.804688 -12.640625 C 2.347656 -12.640625 0.722656 -10.976562 0.722656 -8.792969 C 0.722656 -6.625 2.347656 -4.964844 4.804688 -4.964844 L 13.109375 -4.964844 C 13.6875 -4.964844 14.175781 -4.496094 14.175781 -3.847656 C 14.175781 -3.214844 13.6875 -2.746094 13.109375 -2.746094 L 0.722656 -2.746094 Z M 0.722656 0 "/></g></g></g><g fill="#110d2c" fill-opacity="1"><g transform="translate(72.764456, 183.286791)"><g><path d="M 0.722656 0 L 13.109375 0 C 15.566406 0 17.191406 -1.660156 17.191406 -3.847656 C 17.191406 -6.050781 15.566406 -7.710938 13.109375 -7.710938 L 4.804688 -7.710938 C 4.226562 -7.710938 3.738281 -8.160156 3.738281 -8.792969 C 3.738281 -9.425781 4.226562 -9.894531 4.804688 -9.894531 L 17.191406 -9.894531 L 17.191406 -12.640625 L 4.804688 -12.640625 C 2.347656 -12.640625 0.722656 -10.976562 0.722656 -8.792969 C 0.722656 -6.625 2.347656 -4.964844 4.804688 -4.964844 L 13.109375 -4.964844 C 13.6875 -4.964844 14.175781 -4.496094 14.175781 -3.847656 C 14.175781 -3.214844 13.6875 -2.746094 13.109375 -2.746094 L 0.722656 -2.746094 Z M 0.722656 0 "/></g></g></g><g fill="#110d2c" fill-opacity="1"><g transform="translate(90.676715, 183.286791)"><g><path d="M 0.722656 0 L 11.699219 0 L 11.699219 -2.746094 L 7.726562 -2.746094 L 7.726562 -9.894531 L 11.699219 -9.894531 L 11.699219 -12.640625 L 0.722656 -12.640625 L 0.722656 -9.894531 L 4.695312 -9.894531 L 4.695312 -2.746094 L 0.722656 -2.746094 Z M 0.722656 0 "/></g></g></g><g fill="#110d2c" fill-opacity="1"><g transform="translate(103.099734, 183.286791)"><g><path d="M 0.722656 0 L 13.109375 0 C 15.566406 0 17.191406 -1.660156 17.191406 -3.847656 C 17.191406 -6.050781 15.566406 -7.710938 13.109375 -7.710938 L 4.804688 -7.710938 C 4.226562 -7.710938 3.738281 -8.160156 3.738281 -8.792969 C 3.738281 -9.425781 4.226562 -9.894531 4.804688 -9.894531 L 17.191406 -9.894531 L 17.191406 -12.640625 L 4.804688 -12.640625 C 2.347656 -12.640625 0.722656 -10.976562 0.722656 -8.792969 C 0.722656 -6.625 2.347656 -4.964844 4.804688 -4.964844 L 13.109375 -4.964844 C 13.6875 -4.964844 14.175781 -4.496094 14.175781 -3.847656 C 14.175781 -3.214844 13.6875 -2.746094 13.109375 -2.746094 L 0.722656 -2.746094 Z M 0.722656 0 "/></g></g></g><g fill="#110d2c" fill-opacity="1"><g transform="translate(121.011993, 183.286791)"><g><path d="M 0.722656 -9.894531 L 7.4375 -9.894531 L 7.4375 0 L 10.472656 0 L 10.472656 -9.894531 L 17.191406 -9.894531 L 17.191406 -12.640625 L 0.722656 -12.640625 Z M 0.722656 -9.894531 "/></g></g></g><g fill="#110d2c" fill-opacity="1"><g transform="translate(138.924253, 183.286791)"><g><path d="M 4.804688 0 L 17.191406 0 L 17.191406 -2.746094 L 4.804688 -2.746094 C 4.226562 -2.746094 3.738281 -3.214844 3.738281 -3.847656 L 3.738281 -4.964844 L 11.699219 -4.964844 L 11.699219 -7.710938 L 3.738281 -7.710938 L 3.738281 -8.792969 C 3.738281 -9.425781 4.226562 -9.894531 4.804688 -9.894531 L 17.191406 -9.894531 L 17.191406 -12.640625 L 4.804688 -12.640625 C 2.347656 -12.640625 0.722656 -10.976562 0.722656 -8.9375 L 0.722656 -3.703125 C 0.722656 -1.660156 2.347656 0 4.804688 0 Z M 4.804688 0 "/></g></g></g><g fill="#110d2c" fill-opacity="1"><g transform="translate(156.836512, 183.286791)"><g><path d="M 0.722656 -8.792969 L 0.722656 0 L 3.738281 0 L 3.738281 -8.792969 C 3.738281 -9.425781 4.226562 -9.894531 4.804688 -9.894531 L 13.109375 -9.894531 C 13.6875 -9.894531 14.175781 -9.425781 14.175781 -8.792969 L 14.175781 0 L 17.191406 0 L 17.191406 -8.792969 C 17.191406 -10.976562 15.566406 -12.640625 13.109375 -12.640625 L 4.804688 -12.640625 C 2.347656 -12.640625 0.722656 -10.976562 0.722656 -8.792969 Z M 0.722656 -8.792969 "/></g></g></g><g fill="#110d2c" fill-opacity="1"><g transform="translate(174.748771, 183.286791)"><g><path d="M 0.722656 -9.894531 L 7.4375 -9.894531 L 7.4375 0 L 10.472656 0 L 10.472656 -9.894531 L 17.191406 -9.894531 L 17.191406 -12.640625 L 0.722656 -12.640625 Z M 0.722656 -9.894531 "/></g></g></g><g fill="#110d2c" fill-opacity="1"><g transform="translate(192.661031, 183.286791)"><g><path d="M 4.804688 0 L 17.191406 0 L 17.191406 -2.746094 L 4.804688 -2.746094 C 4.226562 -2.746094 3.738281 -3.214844 3.738281 -3.847656 L 3.738281 -4.964844 L 11.699219 -4.964844 L 11.699219 -7.710938 L 3.738281 -7.710938 L 3.738281 -8.792969 C 3.738281 -9.425781 4.226562 -9.894531 4.804688 -9.894531 L 17.191406 -9.894531 L 17.191406 -12.640625 L 4.804688 -12.640625 C 2.347656 -12.640625 0.722656 -10.976562 0.722656 -8.9375 L 0.722656 -3.703125 C 0.722656 -1.660156 2.347656 0 4.804688 0 Z M 4.804688 0 "/></g></g></g><g fill="#110d2c" fill-opacity="1"><g transform="translate(210.57329, 183.286791)"><g/></g></g><g fill="#110d2c" fill-opacity="1"><g transform="translate(218.518256, 183.286791)"><g><path d="M 5.433594 0 L 12.117188 0 C 14.570312 0 15.980469 -1.660156 16.179688 -3.847656 L 17.007812 -12.640625 L 13.992188 -12.640625 L 13.164062 -3.847656 C 13.109375 -3.214844 12.695312 -2.746094 12.117188 -2.746094 L 5.433594 -2.746094 C 4.855469 -2.746094 4.441406 -3.214844 4.386719 -3.847656 L 3.558594 -12.640625 L 0.542969 -12.640625 L 1.371094 -3.847656 C 1.570312 -1.660156 2.980469 0 5.433594 0 Z M 5.433594 0 "/></g></g></g><g fill="#110d2c" fill-opacity="1"><g transform="translate(236.069375, 183.286791)"><g><path d="M 0.722656 0 L 11.699219 0 L 11.699219 -2.746094 L 7.726562 -2.746094 L 7.726562 -9.894531 L 11.699219 -9.894531 L 11.699219 -12.640625 L 0.722656 -12.640625 L 0.722656 -9.894531 L 4.695312 -9.894531 L 4.695312 -2.746094 L 0.722656 -2.746094 Z M 0.722656 0 "/></g></g></g><g fill="#110d2c" fill-opacity="1"><g transform="translate(248.492394, 183.286791)"><g><path d="M 0.722656 -12.640625 L 0.722656 0 L 3.46875 0 L 3.46875 -4.964844 L 9.046875 -4.964844 L 9.046875 -3.847656 C 9.046875 -1.660156 10.652344 0 13.109375 0 L 17.191406 0 L 17.191406 -2.746094 L 13.109375 -2.746094 C 12.53125 -2.746094 12.0625 -3.214844 12.0625 -3.847656 L 12.0625 -4.964844 L 13.109375 -4.964844 C 15.566406 -4.964844 17.191406 -6.625 17.191406 -8.792969 C 17.191406 -10.976562 15.566406 -12.640625 13.109375 -12.640625 Z M 3.46875 -7.710938 L 3.46875 -9.894531 L 13.109375 -9.894531 C 13.6875 -9.894531 14.175781 -9.425781 14.175781 -8.792969 C 14.175781 -8.160156 13.6875 -7.710938 13.109375 -7.710938 Z M 3.46875 -7.710938 "/></g></g></g><g fill="#110d2c" fill-opacity="1"><g transform="translate(266.404653, 183.286791)"><g><path d="M 0.722656 -9.894531 L 7.4375 -9.894531 L 7.4375 0 L 10.472656 0 L 10.472656 -9.894531 L 17.191406 -9.894531 L 17.191406 -12.640625 L 0.722656 -12.640625 Z M 0.722656 -9.894531 "/></g></g></g><g fill="#110d2c" fill-opacity="1"><g transform="translate(284.316912, 183.286791)"><g><path d="M 4.804688 0 L 13.109375 0 C 15.566406 0 17.191406 -1.660156 17.191406 -3.847656 L 17.191406 -12.640625 L 14.175781 -12.640625 L 14.175781 -3.847656 C 14.175781 -3.214844 13.6875 -2.746094 13.109375 -2.746094 L 4.804688 -2.746094 C 4.226562 -2.746094 3.738281 -3.214844 3.738281 -3.847656 L 3.738281 -12.640625 L 0.722656 -12.640625 L 0.722656 -3.847656 C 0.722656 -1.660156 2.347656 0 4.804688 0 Z M 4.804688 0 "/></g></g></g><g fill="#110d2c" fill-opacity="1"><g transform="translate(302.229172, 183.286791)"><g><path d="M 1.371094 -8.792969 L 0.542969 0 L 3.558594 0 L 4.027344 -4.964844 L 13.523438 -4.964844 L 13.992188 0 L 17.007812 0 L 16.179688 -8.792969 C 15.980469 -10.976562 14.570312 -12.640625 12.117188 -12.640625 L 5.433594 -12.640625 C 2.980469 -12.640625 1.570312 -10.976562 1.371094 -8.792969 Z M 4.28125 -7.710938 L 4.386719 -8.792969 C 4.441406 -9.425781 4.855469 -9.894531 5.433594 -9.894531 L 12.117188 -9.894531 C 12.695312 -9.894531 13.109375 -9.425781 13.164062 -8.792969 L 13.273438 -7.710938 Z M 4.28125 -7.710938 "/></g></g></g><g fill="#110d2c" fill-opacity="1"><g transform="translate(319.780291, 183.286791)"><g><path d="M 4.804688 0 L 17.191406 0 L 17.191406 -2.746094 L 4.804688 -2.746094 C 4.226562 -2.746094 3.738281 -3.214844 3.738281 -3.847656 L 3.738281 -12.640625 L 0.722656 -12.640625 L 0.722656 -3.703125 C 0.722656 -1.660156 2.347656 0 4.804688 0 Z M 4.804688 0 "/></g></g></g></svg>