<svg xmlns="http://www.w3.org/2000/svg" xmlns:xlink="http://www.w3.org/1999/xlink" width="1640" zoomAndPan="magnify" viewBox="0 0 1230 693.000001" height="924" preserveAspectRatio="xMidYMid meet" version="1.0"><defs><g/></defs><g fill="#110d2c" fill-opacity="0.5294"><g transform="translate(39.605301, 369.862483)"><g><path d="M 17.304688 0 L 47.230469 0 C 56.078125 0 61.933594 -5.984375 61.933594 -13.855469 L 61.933594 -31.683594 C 61.933594 -39.554688 56.078125 -45.539062 47.230469 -45.539062 L 17.304688 -45.539062 C 8.457031 -45.539062 2.601562 -39.554688 2.601562 -31.683594 L 2.601562 -13.855469 C 2.601562 -5.984375 8.457031 0 17.304688 0 Z M 13.46875 -13.855469 L 13.46875 -31.683594 C 13.46875 -33.960938 15.222656 -35.652344 17.304688 -35.652344 L 47.230469 -35.652344 C 49.3125 -35.652344 51.070312 -33.960938 51.070312 -31.683594 L 51.070312 -13.855469 C 51.070312 -11.582031 49.3125 -9.890625 47.230469 -9.890625 L 17.304688 -9.890625 C 15.222656 -9.890625 13.46875 -11.582031 13.46875 -13.855469 Z M 13.46875 -13.855469 "/></g></g></g><g fill="#110d2c" fill-opacity="0.5294"><g transform="translate(104.127017, 369.862483)"><g/></g></g><g fill="#110d2c" fill-opacity="0.5294"><g transform="translate(132.745498, 369.862483)"><g><path d="M 17.304688 0 L 26.804688 0 C 26.804688 7.871094 32.660156 13.855469 41.507812 13.855469 L 56.210938 13.855469 L 56.210938 3.96875 L 41.507812 3.96875 C 39.425781 3.96875 37.734375 2.277344 37.734375 0 L 47.230469 0 C 56.078125 0 61.933594 -5.984375 61.933594 -13.855469 L 61.933594 -31.683594 C 61.933594 -39.554688 56.078125 -45.539062 47.230469 -45.539062 L 17.304688 -45.539062 C 8.457031 -45.539062 2.601562 -39.554688 2.601562 -31.683594 L 2.601562 -13.855469 C 2.601562 -5.984375 8.457031 0 17.304688 0 Z M 13.46875 -13.855469 L 13.46875 -31.683594 C 13.46875 -33.960938 15.222656 -35.652344 17.304688 -35.652344 L 47.230469 -35.652344 C 49.3125 -35.652344 51.070312 -33.960938 51.070312 -31.683594 L 51.070312 -13.855469 C 51.070312 -11.582031 49.3125 -9.890625 47.230469 -9.890625 L 17.304688 -9.890625 C 15.222656 -9.890625 13.46875 -11.582031 13.46875 -13.855469 Z M 13.46875 -13.855469 "/></g></g></g><g fill="#110d2c" fill-opacity="0.5294"><g transform="translate(197.267214, 369.862483)"><g><path d="M 17.304688 0 L 47.230469 0 C 56.078125 0 61.933594 -5.984375 61.933594 -13.855469 L 61.933594 -45.539062 L 51.070312 -45.539062 L 51.070312 -13.855469 C 51.070312 -11.582031 49.3125 -9.890625 47.230469 -9.890625 L 17.304688 -9.890625 C 15.222656 -9.890625 13.46875 -11.582031 13.46875 -13.855469 L 13.46875 -45.539062 L 2.601562 -45.539062 L 2.601562 -13.855469 C 2.601562 -5.984375 8.457031 0 17.304688 0 Z M 17.304688 0 "/></g></g></g><g fill="#110d2c" fill-opacity="0.5294"><g transform="translate(261.78893, 369.862483)"><g><path d="M 17.304688 0 L 61.933594 0 L 61.933594 -9.890625 L 17.304688 -9.890625 C 15.222656 -9.890625 13.46875 -11.582031 13.46875 -13.855469 L 13.46875 -17.890625 L 42.15625 -17.890625 L 42.15625 -27.78125 L 13.46875 -27.78125 L 13.46875 -31.683594 C 13.46875 -33.960938 15.222656 -35.652344 17.304688 -35.652344 L 61.933594 -35.652344 L 61.933594 -45.539062 L 17.304688 -45.539062 C 8.457031 -45.539062 2.601562 -39.554688 2.601562 -32.203125 L 2.601562 -13.335938 C 2.601562 -5.984375 8.457031 0 17.304688 0 Z M 17.304688 0 "/></g></g></g><g fill="#110d2c" fill-opacity="0.5294"><g transform="translate(326.310647, 369.862483)"><g/></g></g><g fill="#110d2c" fill-opacity="0.5294"><g transform="translate(354.929127, 369.862483)"><g><path d="M 17.304688 0 L 61.933594 0 L 61.933594 -9.890625 L 17.304688 -9.890625 C 15.222656 -9.890625 13.46875 -11.582031 13.46875 -13.855469 L 13.46875 -17.890625 L 42.15625 -17.890625 L 42.15625 -27.78125 L 13.46875 -27.78125 L 13.46875 -31.683594 C 13.46875 -33.960938 15.222656 -35.652344 17.304688 -35.652344 L 61.933594 -35.652344 L 61.933594 -45.539062 L 17.304688 -45.539062 C 8.457031 -45.539062 2.601562 -39.554688 2.601562 -32.203125 L 2.601562 -13.335938 C 2.601562 -5.984375 8.457031 0 17.304688 0 Z M 17.304688 0 "/></g></g></g><g fill="#110d2c" fill-opacity="0.5294"><g transform="translate(419.450843, 369.862483)"><g><path d="M 17.304688 0 L 47.230469 0 C 56.078125 0 61.933594 -5.984375 61.933594 -13.855469 L 61.933594 -45.539062 L 51.070312 -45.539062 L 51.070312 -13.855469 C 51.070312 -11.582031 49.3125 -9.890625 47.230469 -9.890625 L 17.304688 -9.890625 C 15.222656 -9.890625 13.46875 -11.582031 13.46875 -13.855469 L 13.46875 -45.539062 L 2.601562 -45.539062 L 2.601562 -13.855469 C 2.601562 -5.984375 8.457031 0 17.304688 0 Z M 17.304688 0 "/></g></g></g><g fill="#110d2c" fill-opacity="0.5294"><g transform="translate(483.97256, 369.862483)"><g/></g></g><g fill="#110d2c" fill-opacity="0.5294"><g transform="translate(512.59104, 369.862483)"><g><path d="M 2.601562 -45.539062 L 2.601562 0 L 12.492188 0 L 12.492188 -17.890625 L 47.230469 -17.890625 C 56.078125 -17.890625 61.933594 -23.875 61.933594 -31.683594 C 61.933594 -39.554688 56.078125 -45.539062 47.230469 -45.539062 Z M 12.492188 -27.78125 L 12.492188 -35.652344 L 47.230469 -35.652344 C 49.3125 -35.652344 51.070312 -33.960938 51.070312 -31.683594 C 51.070312 -29.40625 49.3125 -27.78125 47.230469 -27.78125 Z M 12.492188 -27.78125 "/></g></g></g><g fill="#110d2c" fill-opacity="0.5294"><g transform="translate(577.112756, 369.862483)"><g><path d="M 17.304688 0 L 47.230469 0 C 56.078125 0 61.933594 -5.984375 61.933594 -13.855469 L 61.933594 -31.683594 C 61.933594 -39.554688 56.078125 -45.539062 47.230469 -45.539062 L 17.304688 -45.539062 C 8.457031 -45.539062 2.601562 -39.554688 2.601562 -31.683594 L 2.601562 -13.855469 C 2.601562 -5.984375 8.457031 0 17.304688 0 Z M 13.46875 -13.855469 L 13.46875 -31.683594 C 13.46875 -33.960938 15.222656 -35.652344 17.304688 -35.652344 L 47.230469 -35.652344 C 49.3125 -35.652344 51.070312 -33.960938 51.070312 -31.683594 L 51.070312 -13.855469 C 51.070312 -11.582031 49.3125 -9.890625 47.230469 -9.890625 L 17.304688 -9.890625 C 15.222656 -9.890625 13.46875 -11.582031 13.46875 -13.855469 Z M 13.46875 -13.855469 "/></g></g></g><g fill="#110d2c" fill-opacity="0.5294"><g transform="translate(641.634472, 369.862483)"><g><path d="M 2.601562 0 L 47.230469 0 C 56.078125 0 61.933594 -5.984375 61.933594 -13.855469 C 61.933594 -21.792969 56.078125 -27.78125 47.230469 -27.78125 L 17.304688 -27.78125 C 15.222656 -27.78125 13.46875 -29.40625 13.46875 -31.683594 C 13.46875 -33.960938 15.222656 -35.652344 17.304688 -35.652344 L 61.933594 -35.652344 L 61.933594 -45.539062 L 17.304688 -45.539062 C 8.457031 -45.539062 2.601562 -39.554688 2.601562 -31.683594 C 2.601562 -23.875 8.457031 -17.890625 17.304688 -17.890625 L 47.230469 -17.890625 C 49.3125 -17.890625 51.070312 -16.199219 51.070312 -13.855469 C 51.070312 -11.582031 49.3125 -9.890625 47.230469 -9.890625 L 2.601562 -9.890625 Z M 2.601562 0 "/></g></g></g><g fill="#110d2c" fill-opacity="0.5294"><g transform="translate(706.156189, 369.862483)"><g><path d="M 2.601562 0 L 47.230469 0 C 56.078125 0 61.933594 -5.984375 61.933594 -13.855469 C 61.933594 -21.792969 56.078125 -27.78125 47.230469 -27.78125 L 17.304688 -27.78125 C 15.222656 -27.78125 13.46875 -29.40625 13.46875 -31.683594 C 13.46875 -33.960938 15.222656 -35.652344 17.304688 -35.652344 L 61.933594 -35.652344 L 61.933594 -45.539062 L 17.304688 -45.539062 C 8.457031 -45.539062 2.601562 -39.554688 2.601562 -31.683594 C 2.601562 -23.875 8.457031 -17.890625 17.304688 -17.890625 L 47.230469 -17.890625 C 49.3125 -17.890625 51.070312 -16.199219 51.070312 -13.855469 C 51.070312 -11.582031 49.3125 -9.890625 47.230469 -9.890625 L 2.601562 -9.890625 Z M 2.601562 0 "/></g></g></g><g fill="#110d2c" fill-opacity="0.5294"><g transform="translate(770.677905, 369.862483)"><g><path d="M 17.304688 0 L 47.230469 0 C 56.078125 0 61.933594 -5.984375 61.933594 -13.855469 L 61.933594 -31.683594 C 61.933594 -39.554688 56.078125 -45.539062 47.230469 -45.539062 L 17.304688 -45.539062 C 8.457031 -45.539062 2.601562 -39.554688 2.601562 -31.683594 L 2.601562 -13.855469 C 2.601562 -5.984375 8.457031 0 17.304688 0 Z M 13.46875 -13.855469 L 13.46875 -31.683594 C 13.46875 -33.960938 15.222656 -35.652344 17.304688 -35.652344 L 47.230469 -35.652344 C 49.3125 -35.652344 51.070312 -33.960938 51.070312 -31.683594 L 51.070312 -13.855469 C 51.070312 -11.582031 49.3125 -9.890625 47.230469 -9.890625 L 17.304688 -9.890625 C 15.222656 -9.890625 13.46875 -11.582031 13.46875 -13.855469 Z M 13.46875 -13.855469 "/></g></g></g><g fill="#110d2c" fill-opacity="0.5294"><g transform="translate(835.199621, 369.862483)"><g/></g></g><g fill="#110d2c" fill-opacity="0.5294"><g transform="translate(863.818102, 369.862483)"><g><path d="M 2.601562 -32.203125 L 2.601562 0 L 13.46875 0 L 13.46875 -17.890625 L 42.15625 -17.890625 L 42.15625 -27.78125 L 13.46875 -27.78125 L 13.46875 -31.683594 C 13.46875 -33.960938 15.222656 -35.652344 17.304688 -35.652344 L 61.933594 -35.652344 L 61.933594 -45.539062 L 17.304688 -45.539062 C 8.457031 -45.539062 2.601562 -39.554688 2.601562 -32.203125 Z M 2.601562 -32.203125 "/></g></g></g><g fill="#110d2c" fill-opacity="0.5294"><g transform="translate(928.339818, 369.862483)"><g><path d="M 4.945312 -31.683594 L 1.953125 0 L 12.816406 0 L 14.507812 -17.890625 L 48.726562 -17.890625 L 50.417969 0 L 61.285156 0 L 58.292969 -31.683594 C 57.574219 -39.554688 52.5 -45.539062 43.652344 -45.539062 L 19.582031 -45.539062 C 10.734375 -45.539062 5.660156 -39.554688 4.945312 -31.683594 Z M 15.417969 -27.78125 L 15.808594 -31.683594 C 16.003906 -33.960938 17.5 -35.652344 19.582031 -35.652344 L 43.652344 -35.652344 C 45.734375 -35.652344 47.230469 -33.960938 47.425781 -31.683594 L 47.816406 -27.78125 Z M 15.417969 -27.78125 "/></g></g></g><g fill="#110d2c" fill-opacity="0.5294"><g transform="translate(991.560677, 369.862483)"><g><path d="M 17.304688 0 L 61.933594 0 L 61.933594 -9.890625 L 17.304688 -9.890625 C 15.222656 -9.890625 13.46875 -11.582031 13.46875 -13.855469 C 13.46875 -16.199219 15.222656 -17.890625 17.304688 -17.890625 L 27.324219 -17.890625 L 27.324219 -13.855469 L 37.214844 -13.855469 L 37.214844 -17.890625 L 47.230469 -17.890625 C 56.078125 -17.890625 61.933594 -23.875 61.933594 -31.683594 C 61.933594 -39.554688 56.078125 -45.539062 47.230469 -45.539062 L 2.601562 -45.539062 L 2.601562 -35.652344 L 47.230469 -35.652344 C 49.3125 -35.652344 51.070312 -33.960938 51.070312 -31.683594 C 51.070312 -29.40625 49.3125 -27.78125 47.230469 -27.78125 L 37.214844 -27.78125 L 37.214844 -31.683594 L 27.324219 -31.683594 L 27.324219 -27.78125 L 17.304688 -27.78125 C 8.457031 -27.78125 2.601562 -21.792969 2.601562 -13.855469 C 2.601562 -5.984375 8.457031 0 17.304688 0 Z M 17.304688 0 "/></g></g></g><g fill="#110d2c" fill-opacity="0.5294"><g transform="translate(1056.082393, 369.862483)"><g><path d="M 17.304688 0 L 61.933594 0 L 61.933594 -9.890625 L 17.304688 -9.890625 C 15.222656 -9.890625 13.46875 -11.582031 13.46875 -13.855469 L 13.46875 -17.890625 L 42.15625 -17.890625 L 42.15625 -27.78125 L 13.46875 -27.78125 L 13.46875 -31.683594 C 13.46875 -33.960938 15.222656 -35.652344 17.304688 -35.652344 L 61.933594 -35.652344 L 61.933594 -45.539062 L 17.304688 -45.539062 C 8.457031 -45.539062 2.601562 -39.554688 2.601562 -32.203125 L 2.601562 -13.335938 C 2.601562 -5.984375 8.457031 0 17.304688 0 Z M 17.304688 0 "/></g></g></g><g fill="#110d2c" fill-opacity="0.5294"><g transform="translate(1120.604109, 369.862483)"><g><path d="M 2.601562 -45.539062 L 2.601562 0 L 12.492188 0 L 12.492188 -17.890625 L 32.59375 -17.890625 L 32.59375 -13.855469 C 32.59375 -5.984375 38.382812 0 47.230469 0 L 61.933594 0 L 61.933594 -9.890625 L 47.230469 -9.890625 C 45.148438 -9.890625 43.457031 -11.582031 43.457031 -13.855469 L 43.457031 -17.890625 L 47.230469 -17.890625 C 56.078125 -17.890625 61.933594 -23.875 61.933594 -31.683594 C 61.933594 -39.554688 56.078125 -45.539062 47.230469 -45.539062 Z M 12.492188 -27.78125 L 12.492188 -35.652344 L 47.230469 -35.652344 C 49.3125 -35.652344 51.070312 -33.960938 51.070312 -31.683594 C 51.070312 -29.40625 49.3125 -27.78125 47.230469 -27.78125 Z M 12.492188 -27.78125 "/></g></g></g><g fill="#110d2c" fill-opacity="0.5294"><g transform="translate(1185.125825, 369.862483)"><g><path d="M 2.601562 -19.777344 L 13.46875 -19.777344 L 13.46875 -29.667969 L 2.601562 -29.667969 Z M 2.601562 0 L 13.46875 0 L 13.46875 -9.890625 L 2.601562 -9.890625 Z M 2.601562 0 "/></g></g></g><g fill="#110d2c" fill-opacity="1"><g transform="translate(34.208851, 365.941744)"><g><path d="M 17.304688 0 L 47.230469 0 C 56.078125 0 61.933594 -5.984375 61.933594 -13.855469 L 61.933594 -31.683594 C 61.933594 -39.554688 56.078125 -45.539062 47.230469 -45.539062 L 17.304688 -45.539062 C 8.457031 -45.539062 2.601562 -39.554688 2.601562 -31.683594 L 2.601562 -13.855469 C 2.601562 -5.984375 8.457031 0 17.304688 0 Z M 13.46875 -13.855469 L 13.46875 -31.683594 C 13.46875 -33.960938 15.222656 -35.652344 17.304688 -35.652344 L 47.230469 -35.652344 C 49.3125 -35.652344 51.070312 -33.960938 51.070312 -31.683594 L 51.070312 -13.855469 C 51.070312 -11.582031 49.3125 -9.890625 47.230469 -9.890625 L 17.304688 -9.890625 C 15.222656 -9.890625 13.46875 -11.582031 13.46875 -13.855469 Z M 13.46875 -13.855469 "/></g></g></g><g fill="#110d2c" fill-opacity="1"><g transform="translate(98.730567, 365.941744)"><g/></g></g><g fill="#110d2c" fill-opacity="1"><g transform="translate(127.349048, 365.941744)"><g><path d="M 17.304688 0 L 26.804688 0 C 26.804688 7.871094 32.660156 13.855469 41.507812 13.855469 L 56.210938 13.855469 L 56.210938 3.96875 L 41.507812 3.96875 C 39.425781 3.96875 37.734375 2.277344 37.734375 0 L 47.230469 0 C 56.078125 0 61.933594 -5.984375 61.933594 -13.855469 L 61.933594 -31.683594 C 61.933594 -39.554688 56.078125 -45.539062 47.230469 -45.539062 L 17.304688 -45.539062 C 8.457031 -45.539062 2.601562 -39.554688 2.601562 -31.683594 L 2.601562 -13.855469 C 2.601562 -5.984375 8.457031 0 17.304688 0 Z M 13.46875 -13.855469 L 13.46875 -31.683594 C 13.46875 -33.960938 15.222656 -35.652344 17.304688 -35.652344 L 47.230469 -35.652344 C 49.3125 -35.652344 51.070312 -33.960938 51.070312 -31.683594 L 51.070312 -13.855469 C 51.070312 -11.582031 49.3125 -9.890625 47.230469 -9.890625 L 17.304688 -9.890625 C 15.222656 -9.890625 13.46875 -11.582031 13.46875 -13.855469 Z M 13.46875 -13.855469 "/></g></g></g><g fill="#110d2c" fill-opacity="1"><g transform="translate(191.870764, 365.941744)"><g><path d="M 17.304688 0 L 47.230469 0 C 56.078125 0 61.933594 -5.984375 61.933594 -13.855469 L 61.933594 -45.539062 L 51.070312 -45.539062 L 51.070312 -13.855469 C 51.070312 -11.582031 49.3125 -9.890625 47.230469 -9.890625 L 17.304688 -9.890625 C 15.222656 -9.890625 13.46875 -11.582031 13.46875 -13.855469 L 13.46875 -45.539062 L 2.601562 -45.539062 L 2.601562 -13.855469 C 2.601562 -5.984375 8.457031 0 17.304688 0 Z M 17.304688 0 "/></g></g></g><g fill="#110d2c" fill-opacity="1"><g transform="translate(256.39248, 365.941744)"><g><path d="M 17.304688 0 L 61.933594 0 L 61.933594 -9.890625 L 17.304688 -9.890625 C 15.222656 -9.890625 13.46875 -11.582031 13.46875 -13.855469 L 13.46875 -17.890625 L 42.15625 -17.890625 L 42.15625 -27.78125 L 13.46875 -27.78125 L 13.46875 -31.683594 C 13.46875 -33.960938 15.222656 -35.652344 17.304688 -35.652344 L 61.933594 -35.652344 L 61.933594 -45.539062 L 17.304688 -45.539062 C 8.457031 -45.539062 2.601562 -39.554688 2.601562 -32.203125 L 2.601562 -13.335938 C 2.601562 -5.984375 8.457031 0 17.304688 0 Z M 17.304688 0 "/></g></g></g><g fill="#110d2c" fill-opacity="1"><g transform="translate(320.914196, 365.941744)"><g/></g></g><g fill="#110d2c" fill-opacity="1"><g transform="translate(349.532677, 365.941744)"><g><path d="M 17.304688 0 L 61.933594 0 L 61.933594 -9.890625 L 17.304688 -9.890625 C 15.222656 -9.890625 13.46875 -11.582031 13.46875 -13.855469 L 13.46875 -17.890625 L 42.15625 -17.890625 L 42.15625 -27.78125 L 13.46875 -27.78125 L 13.46875 -31.683594 C 13.46875 -33.960938 15.222656 -35.652344 17.304688 -35.652344 L 61.933594 -35.652344 L 61.933594 -45.539062 L 17.304688 -45.539062 C 8.457031 -45.539062 2.601562 -39.554688 2.601562 -32.203125 L 2.601562 -13.335938 C 2.601562 -5.984375 8.457031 0 17.304688 0 Z M 17.304688 0 "/></g></g></g><g fill="#110d2c" fill-opacity="1"><g transform="translate(414.054393, 365.941744)"><g><path d="M 17.304688 0 L 47.230469 0 C 56.078125 0 61.933594 -5.984375 61.933594 -13.855469 L 61.933594 -45.539062 L 51.070312 -45.539062 L 51.070312 -13.855469 C 51.070312 -11.582031 49.3125 -9.890625 47.230469 -9.890625 L 17.304688 -9.890625 C 15.222656 -9.890625 13.46875 -11.582031 13.46875 -13.855469 L 13.46875 -45.539062 L 2.601562 -45.539062 L 2.601562 -13.855469 C 2.601562 -5.984375 8.457031 0 17.304688 0 Z M 17.304688 0 "/></g></g></g><g fill="#110d2c" fill-opacity="1"><g transform="translate(478.576109, 365.941744)"><g/></g></g><g fill="#110d2c" fill-opacity="1"><g transform="translate(507.19459, 365.941744)"><g><path d="M 2.601562 -45.539062 L 2.601562 0 L 12.492188 0 L 12.492188 -17.890625 L 47.230469 -17.890625 C 56.078125 -17.890625 61.933594 -23.875 61.933594 -31.683594 C 61.933594 -39.554688 56.078125 -45.539062 47.230469 -45.539062 Z M 12.492188 -27.78125 L 12.492188 -35.652344 L 47.230469 -35.652344 C 49.3125 -35.652344 51.070312 -33.960938 51.070312 -31.683594 C 51.070312 -29.40625 49.3125 -27.78125 47.230469 -27.78125 Z M 12.492188 -27.78125 "/></g></g></g><g fill="#110d2c" fill-opacity="1"><g transform="translate(571.716306, 365.941744)"><g><path d="M 17.304688 0 L 47.230469 0 C 56.078125 0 61.933594 -5.984375 61.933594 -13.855469 L 61.933594 -31.683594 C 61.933594 -39.554688 56.078125 -45.539062 47.230469 -45.539062 L 17.304688 -45.539062 C 8.457031 -45.539062 2.601562 -39.554688 2.601562 -31.683594 L 2.601562 -13.855469 C 2.601562 -5.984375 8.457031 0 17.304688 0 Z M 13.46875 -13.855469 L 13.46875 -31.683594 C 13.46875 -33.960938 15.222656 -35.652344 17.304688 -35.652344 L 47.230469 -35.652344 C 49.3125 -35.652344 51.070312 -33.960938 51.070312 -31.683594 L 51.070312 -13.855469 C 51.070312 -11.582031 49.3125 -9.890625 47.230469 -9.890625 L 17.304688 -9.890625 C 15.222656 -9.890625 13.46875 -11.582031 13.46875 -13.855469 Z M 13.46875 -13.855469 "/></g></g></g><g fill="#110d2c" fill-opacity="1"><g transform="translate(636.238022, 365.941744)"><g><path d="M 2.601562 0 L 47.230469 0 C 56.078125 0 61.933594 -5.984375 61.933594 -13.855469 C 61.933594 -21.792969 56.078125 -27.78125 47.230469 -27.78125 L 17.304688 -27.78125 C 15.222656 -27.78125 13.46875 -29.40625 13.46875 -31.683594 C 13.46875 -33.960938 15.222656 -35.652344 17.304688 -35.652344 L 61.933594 -35.652344 L 61.933594 -45.539062 L 17.304688 -45.539062 C 8.457031 -45.539062 2.601562 -39.554688 2.601562 -31.683594 C 2.601562 -23.875 8.457031 -17.890625 17.304688 -17.890625 L 47.230469 -17.890625 C 49.3125 -17.890625 51.070312 -16.199219 51.070312 -13.855469 C 51.070312 -11.582031 49.3125 -9.890625 47.230469 -9.890625 L 2.601562 -9.890625 Z M 2.601562 0 "/></g></g></g><g fill="#110d2c" fill-opacity="1"><g transform="translate(700.759738, 365.941744)"><g><path d="M 2.601562 0 L 47.230469 0 C 56.078125 0 61.933594 -5.984375 61.933594 -13.855469 C 61.933594 -21.792969 56.078125 -27.78125 47.230469 -27.78125 L 17.304688 -27.78125 C 15.222656 -27.78125 13.46875 -29.40625 13.46875 -31.683594 C 13.46875 -33.960938 15.222656 -35.652344 17.304688 -35.652344 L 61.933594 -35.652344 L 61.933594 -45.539062 L 17.304688 -45.539062 C 8.457031 -45.539062 2.601562 -39.554688 2.601562 -31.683594 C 2.601562 -23.875 8.457031 -17.890625 17.304688 -17.890625 L 47.230469 -17.890625 C 49.3125 -17.890625 51.070312 -16.199219 51.070312 -13.855469 C 51.070312 -11.582031 49.3125 -9.890625 47.230469 -9.890625 L 2.601562 -9.890625 Z M 2.601562 0 "/></g></g></g><g fill="#110d2c" fill-opacity="1"><g transform="translate(765.281454, 365.941744)"><g><path d="M 17.304688 0 L 47.230469 0 C 56.078125 0 61.933594 -5.984375 61.933594 -13.855469 L 61.933594 -31.683594 C 61.933594 -39.554688 56.078125 -45.539062 47.230469 -45.539062 L 17.304688 -45.539062 C 8.457031 -45.539062 2.601562 -39.554688 2.601562 -31.683594 L 2.601562 -13.855469 C 2.601562 -5.984375 8.457031 0 17.304688 0 Z M 13.46875 -13.855469 L 13.46875 -31.683594 C 13.46875 -33.960938 15.222656 -35.652344 17.304688 -35.652344 L 47.230469 -35.652344 C 49.3125 -35.652344 51.070312 -33.960938 51.070312 -31.683594 L 51.070312 -13.855469 C 51.070312 -11.582031 49.3125 -9.890625 47.230469 -9.890625 L 17.304688 -9.890625 C 15.222656 -9.890625 13.46875 -11.582031 13.46875 -13.855469 Z M 13.46875 -13.855469 "/></g></g></g><g fill="#110d2c" fill-opacity="1"><g transform="translate(829.80317, 365.941744)"><g/></g></g><g fill="#110d2c" fill-opacity="1"><g transform="translate(858.421651, 365.941744)"><g><path d="M 2.601562 -32.203125 L 2.601562 0 L 13.46875 0 L 13.46875 -17.890625 L 42.15625 -17.890625 L 42.15625 -27.78125 L 13.46875 -27.78125 L 13.46875 -31.683594 C 13.46875 -33.960938 15.222656 -35.652344 17.304688 -35.652344 L 61.933594 -35.652344 L 61.933594 -45.539062 L 17.304688 -45.539062 C 8.457031 -45.539062 2.601562 -39.554688 2.601562 -32.203125 Z M 2.601562 -32.203125 "/></g></g></g><g fill="#110d2c" fill-opacity="1"><g transform="translate(922.943367, 365.941744)"><g><path d="M 4.945312 -31.683594 L 1.953125 0 L 12.816406 0 L 14.507812 -17.890625 L 48.726562 -17.890625 L 50.417969 0 L 61.285156 0 L 58.292969 -31.683594 C 57.574219 -39.554688 52.5 -45.539062 43.652344 -45.539062 L 19.582031 -45.539062 C 10.734375 -45.539062 5.660156 -39.554688 4.945312 -31.683594 Z M 15.417969 -27.78125 L 15.808594 -31.683594 C 16.003906 -33.960938 17.5 -35.652344 19.582031 -35.652344 L 43.652344 -35.652344 C 45.734375 -35.652344 47.230469 -33.960938 47.425781 -31.683594 L 47.816406 -27.78125 Z M 15.417969 -27.78125 "/></g></g></g><g fill="#110d2c" fill-opacity="1"><g transform="translate(986.164226, 365.941744)"><g><path d="M 17.304688 0 L 61.933594 0 L 61.933594 -9.890625 L 17.304688 -9.890625 C 15.222656 -9.890625 13.46875 -11.582031 13.46875 -13.855469 C 13.46875 -16.199219 15.222656 -17.890625 17.304688 -17.890625 L 27.324219 -17.890625 L 27.324219 -13.855469 L 37.214844 -13.855469 L 37.214844 -17.890625 L 47.230469 -17.890625 C 56.078125 -17.890625 61.933594 -23.875 61.933594 -31.683594 C 61.933594 -39.554688 56.078125 -45.539062 47.230469 -45.539062 L 2.601562 -45.539062 L 2.601562 -35.652344 L 47.230469 -35.652344 C 49.3125 -35.652344 51.070312 -33.960938 51.070312 -31.683594 C 51.070312 -29.40625 49.3125 -27.78125 47.230469 -27.78125 L 37.214844 -27.78125 L 37.214844 -31.683594 L 27.324219 -31.683594 L 27.324219 -27.78125 L 17.304688 -27.78125 C 8.457031 -27.78125 2.601562 -21.792969 2.601562 -13.855469 C 2.601562 -5.984375 8.457031 0 17.304688 0 Z M 17.304688 0 "/></g></g></g><g fill="#110d2c" fill-opacity="1"><g transform="translate(1050.685942, 365.941744)"><g><path d="M 17.304688 0 L 61.933594 0 L 61.933594 -9.890625 L 17.304688 -9.890625 C 15.222656 -9.890625 13.46875 -11.582031 13.46875 -13.855469 L 13.46875 -17.890625 L 42.15625 -17.890625 L 42.15625 -27.78125 L 13.46875 -27.78125 L 13.46875 -31.683594 C 13.46875 -33.960938 15.222656 -35.652344 17.304688 -35.652344 L 61.933594 -35.652344 L 61.933594 -45.539062 L 17.304688 -45.539062 C 8.457031 -45.539062 2.601562 -39.554688 2.601562 -32.203125 L 2.601562 -13.335938 C 2.601562 -5.984375 8.457031 0 17.304688 0 Z M 17.304688 0 "/></g></g></g><g fill="#110d2c" fill-opacity="1"><g transform="translate(1115.207658, 365.941744)"><g><path d="M 2.601562 -45.539062 L 2.601562 0 L 12.492188 0 L 12.492188 -17.890625 L 32.59375 -17.890625 L 32.59375 -13.855469 C 32.59375 -5.984375 38.382812 0 47.230469 0 L 61.933594 0 L 61.933594 -9.890625 L 47.230469 -9.890625 C 45.148438 -9.890625 43.457031 -11.582031 43.457031 -13.855469 L 43.457031 -17.890625 L 47.230469 -17.890625 C 56.078125 -17.890625 61.933594 -23.875 61.933594 -31.683594 C 61.933594 -39.554688 56.078125 -45.539062 47.230469 -45.539062 Z M 12.492188 -27.78125 L 12.492188 -35.652344 L 47.230469 -35.652344 C 49.3125 -35.652344 51.070312 -33.960938 51.070312 -31.683594 C 51.070312 -29.40625 49.3125 -27.78125 47.230469 -27.78125 Z M 12.492188 -27.78125 "/></g></g></g><g fill="#110d2c" fill-opacity="1"><g transform="translate(1179.729374, 365.941744)"><g><path d="M 2.601562 -19.777344 L 13.46875 -19.777344 L 13.46875 -29.667969 L 2.601562 -29.667969 Z M 2.601562 0 L 13.46875 0 L 13.46875 -9.890625 L 2.601562 -9.890625 Z M 2.601562 0 "/></g></g></g></svg>