<svg xmlns="http://www.w3.org/2000/svg" xmlns:xlink="http://www.w3.org/1999/xlink" width="500" zoomAndPan="magnify" viewBox="0 0 375 374.999991" height="500" preserveAspectRatio="xMidYMid meet" version="1.0"><defs><clipPath id="7faa4afb62"><path d="M 112.5 112.5 L 262.5 112.5 L 262.5 262.5 L 112.5 262.5 Z M 112.5 112.5 " clip-rule="nonzero"/></clipPath></defs><g clip-path="url(#7faa4afb62)"><path fill="#ffffff" d="M 187.5 112.5 C 146.070312 112.5 112.5 146.070312 112.5 187.5 C 112.5 228.929688 146.070312 262.5 187.5 262.5 C 228.929688 262.5 262.5 228.929688 262.5 187.5 C 262.433594 146.070312 228.863281 112.5 187.5 112.5 Z M 165.488281 227.433594 L 147.890625 227.433594 L 147.890625 170.683594 L 165.488281 170.683594 Z M 156.722656 163.148438 C 151.070312 163.148438 146.460938 158.539062 146.460938 152.890625 C 146.460938 147.242188 151.070312 142.628906 156.722656 142.628906 C 162.371094 142.628906 166.980469 147.242188 166.980469 152.890625 C 166.980469 158.539062 162.371094 163.148438 156.722656 163.148438 Z M 231.589844 227.433594 L 213.992188 227.433594 L 213.992188 199.058594 C 213.992188 195.03125 213.992188 185.03125 205.03125 185.03125 C 194.835938 185.03125 194.1875 195.355469 194.1875 195.355469 L 194.1875 227.433594 L 176.65625 227.433594 L 176.65625 170.683594 L 194.253906 170.683594 L 194.253906 178.472656 C 198.410156 170.03125 206.980469 169.382812 212.566406 169.382812 C 218.929688 169.382812 224.644531 171.851562 227.890625 177.304688 C 230.683594 181.914062 231.589844 188.605469 231.589844 199.058594 Z M 231.589844 227.433594 " fill-opacity="1" fill-rule="nonzero"/></g></svg>