<svg xmlns="http://www.w3.org/2000/svg" xmlns:xlink="http://www.w3.org/1999/xlink" width="500" zoomAndPan="magnify" viewBox="0 0 375 374.999991" height="500" preserveAspectRatio="xMidYMid meet" version="1.0"><defs><g/></defs><g fill="#110d2c" fill-opacity="0.5294"><g transform="translate(19.46291, 209.41894)"><g><path d="M 48.648438 0 L 63.425781 0 C 71.800781 0 77.34375 -5.664062 77.34375 -13.117188 L 77.34375 -43.105469 L 67.058594 -43.105469 L 67.058594 -13.117188 C 67.058594 -10.960938 65.394531 -9.359375 63.425781 -9.359375 L 48.648438 -9.359375 C 46.675781 -9.359375 45.074219 -10.960938 45.074219 -13.117188 L 45.074219 -43.105469 L 34.730469 -43.105469 L 34.730469 -13.117188 C 34.730469 -10.960938 33.128906 -9.359375 31.160156 -9.359375 L 16.378906 -9.359375 C 14.410156 -9.359375 12.746094 -10.960938 12.746094 -13.117188 L 12.746094 -43.105469 L 2.464844 -43.105469 L 2.464844 -13.117188 C 2.464844 -5.664062 8.003906 0 16.378906 0 L 31.160156 0 C 34.605469 0 37.625 -0.984375 39.902344 -2.648438 C 42.179688 -0.984375 45.199219 0 48.648438 0 Z M 48.648438 0 "/></g></g></g><g fill="#110d2c" fill-opacity="0.5294"><g transform="translate(99.260483, 209.41894)"><g><path d="M 4.679688 -29.988281 L 1.847656 0 L 12.132812 0 L 13.730469 -16.933594 L 46.121094 -16.933594 L 47.722656 0 L 58.007812 0 L 55.175781 -29.988281 C 54.496094 -37.441406 49.695312 -43.105469 41.320312 -43.105469 L 18.535156 -43.105469 C 10.160156 -43.105469 5.355469 -37.441406 4.679688 -29.988281 Z M 14.59375 -26.292969 L 14.964844 -29.988281 C 15.148438 -32.144531 16.566406 -33.746094 18.535156 -33.746094 L 41.320312 -33.746094 C 43.289062 -33.746094 44.707031 -32.144531 44.890625 -29.988281 L 45.261719 -26.292969 Z M 14.59375 -26.292969 "/></g></g></g><g fill="#110d2c" fill-opacity="0.5294"><g transform="translate(159.108666, 209.41894)"><g><path d="M 16.378906 0 L 58.621094 0 L 58.621094 -9.359375 L 16.378906 -9.359375 C 14.410156 -9.359375 12.746094 -10.960938 12.746094 -13.117188 L 12.746094 -43.105469 L 2.464844 -43.105469 L 2.464844 -12.625 C 2.464844 -5.664062 8.003906 0 16.378906 0 Z M 16.378906 0 "/></g></g></g><g fill="#110d2c" fill-opacity="0.5294"><g transform="translate(220.188295, 209.41894)"><g><path d="M 16.378906 0 L 58.621094 0 L 58.621094 -9.359375 L 16.378906 -9.359375 C 14.410156 -9.359375 12.746094 -10.960938 12.746094 -13.117188 L 12.746094 -43.105469 L 2.464844 -43.105469 L 2.464844 -12.625 C 2.464844 -5.664062 8.003906 0 16.378906 0 Z M 16.378906 0 "/></g></g></g><g fill="#110d2c" fill-opacity="0.5294"><g transform="translate(281.267924, 209.41894)"><g><path d="M 2.464844 -18.71875 L 20.9375 -18.71875 L 20.9375 -28.078125 L 2.464844 -28.078125 Z M 2.464844 -18.71875 "/></g></g></g><g fill="#110d2c" fill-opacity="0.5294"><g transform="translate(304.665345, 209.41894)"><g><path d="M 16.378906 -16.933594 L 48.339844 -16.933594 L 48.339844 -13.117188 C 48.339844 -10.960938 46.675781 -9.359375 44.707031 -9.359375 L 2.464844 -9.359375 L 2.464844 0 L 44.707031 0 C 53.082031 0 58.621094 -5.664062 58.621094 -13.117188 L 58.621094 -43.105469 L 48.339844 -43.105469 L 48.339844 -26.292969 L 16.378906 -26.292969 C 14.410156 -26.292969 12.746094 -27.832031 12.746094 -29.988281 L 12.746094 -43.105469 L 2.464844 -43.105469 L 2.464844 -29.988281 C 2.464844 -22.597656 8.003906 -16.933594 16.378906 -16.933594 Z M 16.378906 -16.933594 "/></g></g></g><g fill="#110d2c" fill-opacity="1"><g transform="translate(14.35646, 205.708886)"><g><path d="M 48.648438 0 L 63.425781 0 C 71.800781 0 77.34375 -5.664062 77.34375 -13.117188 L 77.34375 -43.105469 L 67.058594 -43.105469 L 67.058594 -13.117188 C 67.058594 -10.960938 65.394531 -9.359375 63.425781 -9.359375 L 48.648438 -9.359375 C 46.675781 -9.359375 45.074219 -10.960938 45.074219 -13.117188 L 45.074219 -43.105469 L 34.730469 -43.105469 L 34.730469 -13.117188 C 34.730469 -10.960938 33.128906 -9.359375 31.160156 -9.359375 L 16.378906 -9.359375 C 14.410156 -9.359375 12.746094 -10.960938 12.746094 -13.117188 L 12.746094 -43.105469 L 2.464844 -43.105469 L 2.464844 -13.117188 C 2.464844 -5.664062 8.003906 0 16.378906 0 L 31.160156 0 C 34.605469 0 37.625 -0.984375 39.902344 -2.648438 C 42.179688 -0.984375 45.199219 0 48.648438 0 Z M 48.648438 0 "/></g></g></g><g fill="#110d2c" fill-opacity="1"><g transform="translate(94.154032, 205.708886)"><g><path d="M 4.679688 -29.988281 L 1.847656 0 L 12.132812 0 L 13.730469 -16.933594 L 46.121094 -16.933594 L 47.722656 0 L 58.007812 0 L 55.175781 -29.988281 C 54.496094 -37.441406 49.695312 -43.105469 41.320312 -43.105469 L 18.535156 -43.105469 C 10.160156 -43.105469 5.355469 -37.441406 4.679688 -29.988281 Z M 14.59375 -26.292969 L 14.964844 -29.988281 C 15.148438 -32.144531 16.566406 -33.746094 18.535156 -33.746094 L 41.320312 -33.746094 C 43.289062 -33.746094 44.707031 -32.144531 44.890625 -29.988281 L 45.261719 -26.292969 Z M 14.59375 -26.292969 "/></g></g></g><g fill="#110d2c" fill-opacity="1"><g transform="translate(154.002216, 205.708886)"><g><path d="M 16.378906 0 L 58.621094 0 L 58.621094 -9.359375 L 16.378906 -9.359375 C 14.410156 -9.359375 12.746094 -10.960938 12.746094 -13.117188 L 12.746094 -43.105469 L 2.464844 -43.105469 L 2.464844 -12.625 C 2.464844 -5.664062 8.003906 0 16.378906 0 Z M 16.378906 0 "/></g></g></g><g fill="#110d2c" fill-opacity="1"><g transform="translate(215.081844, 205.708886)"><g><path d="M 16.378906 0 L 58.621094 0 L 58.621094 -9.359375 L 16.378906 -9.359375 C 14.410156 -9.359375 12.746094 -10.960938 12.746094 -13.117188 L 12.746094 -43.105469 L 2.464844 -43.105469 L 2.464844 -12.625 C 2.464844 -5.664062 8.003906 0 16.378906 0 Z M 16.378906 0 "/></g></g></g><g fill="#110d2c" fill-opacity="1"><g transform="translate(276.161473, 205.708886)"><g><path d="M 2.464844 -18.71875 L 20.9375 -18.71875 L 20.9375 -28.078125 L 2.464844 -28.078125 Z M 2.464844 -18.71875 "/></g></g></g><g fill="#110d2c" fill-opacity="1"><g transform="translate(299.558895, 205.708886)"><g><path d="M 16.378906 -16.933594 L 48.339844 -16.933594 L 48.339844 -13.117188 C 48.339844 -10.960938 46.675781 -9.359375 44.707031 -9.359375 L 2.464844 -9.359375 L 2.464844 0 L 44.707031 0 C 53.082031 0 58.621094 -5.664062 58.621094 -13.117188 L 58.621094 -43.105469 L 48.339844 -43.105469 L 48.339844 -26.292969 L 16.378906 -26.292969 C 14.410156 -26.292969 12.746094 -27.832031 12.746094 -29.988281 L 12.746094 -43.105469 L 2.464844 -43.105469 L 2.464844 -29.988281 C 2.464844 -22.597656 8.003906 -16.933594 16.378906 -16.933594 Z M 16.378906 -16.933594 "/></g></g></g></svg>