<svg xmlns="http://www.w3.org/2000/svg" xmlns:xlink="http://www.w3.org/1999/xlink" width="500" zoomAndPan="magnify" viewBox="0 0 375 374.999991" height="500" preserveAspectRatio="xMidYMid meet" version="1.0"><defs><filter x="0%" y="0%" width="100%" height="100%" id="47bc221d28"><feColorMatrix values="0 0 0 0 1 0 0 0 0 1 0 0 0 0 1 0 0 0 1 0" color-interpolation-filters="sRGB"/></filter><mask id="eca0c568a1"><g filter="url(#47bc221d28)"><rect x="-37.5" width="450" fill="#000000" y="-37.499999" height="449.999989" fill-opacity="0.298"/></g></mask><clipPath id="8b1983c467"><path d="M 0 0.105469 L 375 0.105469 L 375 203.347656 L 0 203.347656 Z M 0 0.105469 " clip-rule="nonzero"/></clipPath><clipPath id="3f2277d7ad"><rect x="0" width="375" y="0" height="205"/></clipPath></defs><g mask="url(#eca0c568a1)"><g transform="matrix(1, 0, 0, 1, 0, 82)"><g clip-path="url(#3f2277d7ad)"><g clip-path="url(#8b1983c467)"><path fill="#538efa" d="M 384.511719 98.78125 L 373.257812 98.78125 L 370.140625 69.117188 L 367.179688 98.78125 L 367.085938 98.78125 L 363.941406 38.847656 L 360.941406 98.78125 L 360.863281 98.78125 L 357.738281 61.246094 L 354.761719 98.78125 L 354.613281 98.78125 L 351.539062 80.164062 L 348.605469 98.78125 L 348.308594 98.78125 L 345.332031 89.699219 L 342.496094 98.78125 L 342.226562 98.78125 L 339.136719 76.230469 L 336.1875 98.78125 L 336.0625 98.78125 L 332.929688 53.074219 L 329.945312 98.78125 L 329.882812 98.78125 L 326.722656 13.425781 L 323.722656 98.78125 L 323.667969 98.78125 L 320.527344 48.082031 L 317.53125 98.78125 L 317.425781 98.78125 L 314.328125 73.355469 L 311.371094 98.78125 L 311.265625 98.78125 L 308.121094 50.046875 L 305.136719 98.78125 L 305.078125 98.78125 L 301.917969 19.632812 L 298.914062 98.78125 L 298.851562 98.78125 L 295.71875 52.320312 L 292.734375 98.78125 L 292.542969 98.78125 L 289.523438 86.972656 L 286.640625 98.78125 L 286.398438 98.78125 L 283.316406 78.953125 L 280.382812 98.78125 L 280.234375 98.78125 L 277.109375 65.179688 L 274.140625 98.78125 L 274.054688 98.78125 L 270.914062 36.277344 L 267.917969 98.78125 L 267.867188 98.78125 L 264.714844 1.621094 L 261.703125 98.78125 L 261.660156 98.78125 L 258.507812 18.421875 L 255.507812 98.78125 L 255.445312 98.78125 L 252.304688 39.152344 L 249.308594 98.78125 L 249.214844 98.78125 L 246.105469 71.839844 L 243.148438 98.78125 L 242.902344 98.78125 L 239.898438 88.640625 L 237.046875 98.78125 L 236.785156 98.78125 L 233.703125 77.742188 L 230.761719 98.78125 L 230.628906 98.78125 L 227.496094 56.253906 L 224.511719 98.78125 L 224.449219 98.78125 L 221.300781 29.769531 L 218.296875 98.78125 L 218.253906 98.78125 L 215.09375 0.105469 L 212.089844 98.78125 L 212.046875 98.78125 L 208.894531 14.488281 L 205.894531 98.78125 L 205.832031 98.78125 L 202.6875 48.835938 L 199.703125 98.78125 L 199.539062 98.78125 L 196.492188 83.949219 L 193.585938 98.78125 L 193.410156 98.78125 L 190.285156 63.214844 L 187.308594 98.78125 L 187.160156 98.78125 L 184.078125 79.558594 L 181.15625 98.78125 L 181 98.78125 L 177.882812 69.117188 L 174.914062 98.78125 L 174.820312 98.78125 L 171.683594 53.074219 L 168.699219 98.78125 L 168.621094 98.78125 L 165.480469 40.363281 L 162.484375 98.78125 L 162.433594 98.78125 L 159.273438 25.835938 L 156.28125 98.78125 L 156.21875 98.78125 L 153.074219 44.601562 L 150.082031 98.78125 L 150.003906 98.78125 L 146.878906 55.796875 L 143.894531 98.78125 L 143.789062 98.78125 L 140.671875 67.90625 L 137.703125 98.78125 L 137.539062 98.78125 L 134.464844 81.980469 L 131.550781 98.78125 L 131.28125 98.78125 L 128.269531 87.878906 L 125.398438 98.78125 L 125.160156 98.78125 L 122.0625 76.230469 L 119.121094 98.78125 L 118.992188 98.78125 L 115.867188 62.609375 L 112.890625 98.78125 L 112.800781 98.78125 L 109.660156 46.113281 L 106.675781 98.78125 L 106.613281 98.78125 L 103.460938 29.769531 L 100.460938 98.78125 L 100.40625 98.78125 L 97.257812 16.148438 L 94.253906 98.78125 L 94.199219 98.78125 L 91.058594 36.429688 L 88.054688 98.78125 L 87.996094 98.78125 L 84.851562 44.601562 L 81.859375 98.78125 L 81.78125 98.78125 L 78.644531 57.765625 L 75.671875 98.78125 L 75.542969 98.78125 L 72.449219 77.136719 L 69.507812 98.78125 L 69.214844 98.78125 L 66.25 90.304688 L 63.425781 98.78125 L 63.082031 98.78125 L 60.046875 85.761719 L 57.152344 98.78125 L 56.941406 98.78125 L 53.84375 75.46875 L 50.894531 98.78125 L 50.761719 98.78125 L 47.644531 65.636719 L 44.671875 98.78125 L 44.574219 98.78125 L 41.441406 55.347656 L 38.457031 98.78125 L 38.355469 98.78125 L 35.238281 68.210938 L 32.269531 98.78125 L 32.117188 98.78125 L 29.039062 79.105469 L 26.097656 98.78125 L 25.800781 98.78125 L 22.835938 90.152344 L 20.007812 98.78125 L 19.703125 98.78125 L 16.632812 81.074219 L 13.707031 98.78125 L 13.546875 98.78125 L 10.429688 67 L 7.460938 98.78125 L 7.316406 98.78125 L 4.226562 77.136719 L 1.285156 98.78125 L -9.386719 98.78125 L -9.386719 104.671875 L 1.136719 104.671875 L 4.226562 126.164062 L 7.171875 104.671875 L 7.3125 104.671875 L 10.429688 136.460938 L 13.398438 104.671875 L 13.5625 104.671875 L 16.632812 122.390625 L 19.558594 104.671875 L 19.871094 104.671875 L 22.835938 113.148438 L 25.660156 104.671875 L 25.957031 104.671875 L 29.039062 124.203125 L 31.96875 104.671875 L 32.125 104.671875 L 35.238281 135.09375 L 38.203125 104.671875 L 38.304688 104.671875 L 41.441406 147.960938 L 44.421875 104.671875 L 44.523438 104.671875 L 47.644531 137.667969 L 50.613281 104.671875 L 50.75 104.671875 L 53.84375 127.984375 L 56.792969 104.671875 L 57.011719 104.671875 L 60.046875 117.695312 L 62.9375 104.671875 L 63.285156 104.671875 L 66.25 113.148438 L 69.074219 104.671875 L 69.359375 104.671875 L 72.449219 126.320312 L 75.390625 104.671875 L 75.523438 104.671875 L 78.644531 145.535156 L 81.632812 104.671875 L 81.710938 104.671875 L 84.851562 158.851562 L 87.847656 104.671875 L 87.90625 104.671875 L 91.058594 167.023438 L 94.050781 104.671875 L 94.105469 104.671875 L 97.257812 187.304688 L 100.257812 104.671875 L 100.3125 104.671875 L 103.460938 173.6875 L 106.457031 104.671875 L 106.515625 104.671875 L 109.660156 157.339844 L 112.652344 104.671875 L 112.742188 104.671875 L 115.867188 140.847656 L 118.832031 104.671875 L 118.972656 104.671875 L 122.0625 127.074219 L 125.011719 104.671875 L 125.257812 104.671875 L 128.269531 115.574219 L 131.132812 104.671875 L 131.402344 104.671875 L 134.464844 121.476562 L 137.390625 104.671875 L 137.554688 104.671875 L 140.671875 135.402344 L 143.640625 104.671875 L 143.746094 104.671875 L 146.878906 147.503906 L 149.855469 104.671875 L 149.933594 104.671875 L 153.074219 158.851562 L 156.070312 104.671875 L 156.128906 104.671875 L 159.273438 177.621094 L 162.277344 104.671875 L 162.335938 104.671875 L 165.480469 163.089844 L 168.472656 104.671875 L 168.542969 104.671875 L 171.683594 150.226562 L 174.671875 104.671875 L 174.765625 104.671875 L 177.882812 134.183594 L 180.851562 104.671875 L 181.007812 104.671875 L 184.078125 123.746094 L 187.019531 104.671875 L 187.160156 104.671875 L 190.285156 140.09375 L 193.261719 104.671875 L 193.4375 104.671875 L 196.492188 119.507812 L 199.398438 104.671875 L 199.554688 104.671875 L 202.6875 154.613281 L 205.683594 104.671875 L 205.734375 104.671875 L 208.894531 188.820312 L 211.898438 104.671875 L 211.933594 104.671875 L 215.09375 203.347656 L 218.105469 104.671875 L 218.148438 104.671875 L 221.300781 173.6875 L 224.292969 104.671875 L 224.371094 104.671875 L 227.496094 147.207031 L 230.480469 104.671875 L 230.613281 104.671875 L 233.703125 125.566406 L 236.644531 104.671875 L 236.90625 104.671875 L 239.898438 114.824219 L 242.753906 104.671875 L 243 104.671875 L 246.105469 131.617188 L 249.0625 104.671875 L 249.160156 104.671875 L 252.304688 164.300781 L 255.304688 104.671875 L 255.359375 104.671875 L 258.507812 184.886719 L 261.511719 104.671875 L 261.554688 104.671875 L 264.714844 201.683594 L 267.71875 104.671875 L 267.761719 104.671875 L 270.914062 167.023438 L 273.90625 104.671875 L 273.992188 104.671875 L 277.109375 138.125 L 280.085938 104.671875 L 280.234375 104.671875 L 283.316406 124.351562 L 286.25 104.671875 L 286.492188 104.671875 L 289.523438 116.328125 L 292.394531 104.671875 L 292.585938 104.671875 L 295.71875 150.988281 L 298.703125 104.671875 L 298.765625 104.671875 L 301.917969 183.828125 L 304.917969 104.671875 L 304.980469 104.671875 L 308.121094 153.40625 L 311.109375 104.671875 L 311.222656 104.671875 L 314.328125 129.953125 L 317.277344 104.671875 L 317.382812 104.671875 L 320.527344 155.375 L 323.519531 104.671875 L 323.574219 104.671875 L 326.722656 190.027344 L 329.734375 104.671875 L 329.796875 104.671875 L 332.929688 150.226562 L 335.914062 104.671875 L 336.035156 104.671875 L 339.136719 127.074219 L 342.078125 104.671875 L 342.355469 104.671875 L 345.332031 113.761719 L 348.167969 104.671875 L 348.457031 104.671875 L 351.539062 123.140625 L 354.472656 104.671875 L 354.613281 104.671875 L 357.738281 142.058594 L 360.710938 104.671875 L 360.800781 104.671875 L 363.941406 164.457031 L 366.9375 104.671875 L 367.03125 104.671875 L 370.140625 134.183594 L 373.105469 104.671875 L 384.511719 104.671875 L 384.511719 98.78125 " fill-opacity="1" fill-rule="evenodd"/></g></g></g></g></svg>