<svg xmlns="http://www.w3.org/2000/svg" xmlns:xlink="http://www.w3.org/1999/xlink" width="1640" zoomAndPan="magnify" viewBox="0 0 1230 693.000001" height="924" preserveAspectRatio="xMidYMid meet" version="1.0"><defs><filter x="0%" y="0%" width="100%" height="100%" id="6c0e953353"><feColorMatrix values="0 0 0 0 1 0 0 0 0 1 0 0 0 0 1 0 0 0 1 0" color-interpolation-filters="sRGB"/></filter><clipPath id="a455ce79e9"><path d="M 0.886719 9 L 1229.113281 9 L 1229.113281 686 L 0.886719 686 Z M 0.886719 9 " clip-rule="nonzero"/></clipPath><mask id="565d809c8d"><g filter="url(#6c0e953353)"><rect x="-123" width="1476" fill="#000000" y="-69.3" height="831.600001" fill-opacity="0.1294"/></g></mask><clipPath id="9ab236176b"><path d="M 0.886719 0.851562 L 1229.113281 0.851562 L 1229.113281 673.351562 L 0.886719 673.351562 Z M 0.886719 0.851562 " clip-rule="nonzero"/></clipPath><clipPath id="bc487d61ec"><rect x="0" width="1230" y="0" height="677"/></clipPath></defs><g clip-path="url(#a455ce79e9)"><g mask="url(#565d809c8d)"><g transform="matrix(1, 0, 0, 1, 0, 9)"><g clip-path="url(#bc487d61ec)"><g clip-path="url(#9ab236176b)"><path fill="#538efa" d="M 1266.65625 327.351562 L 1229.410156 327.351562 L 1219.097656 229.207031 L 1209.308594 327.351562 L 1208.992188 327.351562 L 1198.59375 129.042969 L 1188.65625 327.351562 L 1188.398438 327.351562 L 1178.054688 203.160156 L 1168.207031 327.351562 L 1167.714844 327.351562 L 1157.550781 265.753906 L 1147.847656 327.351562 L 1146.863281 327.351562 L 1137.015625 297.300781 L 1127.628906 327.351562 L 1126.730469 327.351562 L 1116.507812 252.738281 L 1106.746094 327.351562 L 1106.339844 327.351562 L 1095.972656 176.117188 L 1086.09375 327.351562 L 1085.890625 327.351562 L 1075.4375 44.925781 L 1065.5 327.351562 L 1065.328125 327.351562 L 1054.929688 159.59375 L 1045.023438 327.351562 L 1044.675781 327.351562 L 1034.421875 243.21875 L 1024.632812 327.351562 L 1024.285156 327.351562 L 1013.886719 166.101562 L 1004.011719 327.351562 L 1003.808594 327.351562 L 993.351562 65.457031 L 983.417969 327.351562 L 983.214844 327.351562 L 972.84375 173.617188 L 962.96875 327.351562 L 962.332031 327.351562 L 952.339844 288.289062 L 942.808594 327.351562 L 942 327.351562 L 931.804688 261.746094 L 922.101562 327.351562 L 921.605469 327.351562 L 911.265625 216.175781 L 901.449219 327.351562 L 901.160156 327.351562 L 890.761719 120.535156 L 880.855469 327.351562 L 880.679688 327.351562 L 870.253906 5.863281 L 860.289062 327.351562 L 860.144531 327.351562 L 849.71875 61.449219 L 839.785156 327.351562 L 839.582031 327.351562 L 829.183594 130.054688 L 819.277344 327.351562 L 818.957031 327.351562 L 808.675781 238.214844 L 798.886719 327.351562 L 798.074219 327.351562 L 788.140625 293.796875 L 778.699219 327.351562 L 777.828125 327.351562 L 767.632812 257.738281 L 757.902344 327.351562 L 757.46875 327.351562 L 747.097656 186.632812 L 737.222656 327.351562 L 737.019531 327.351562 L 726.589844 99.003906 L 716.65625 327.351562 L 716.511719 327.351562 L 706.054688 0.851562 L 696.121094 327.351562 L 695.976562 327.351562 L 685.550781 48.433594 L 675.613281 327.351562 L 675.410156 327.351562 L 665.011719 162.09375 L 655.136719 327.351562 L 654.585938 327.351562 L 644.507812 278.269531 L 634.890625 327.351562 L 634.3125 327.351562 L 623.972656 209.667969 L 614.125 327.351562 L 613.632812 327.351562 L 603.4375 263.746094 L 593.761719 327.351562 L 593.242188 327.351562 L 582.929688 229.207031 L 573.109375 327.351562 L 572.792969 327.351562 L 562.421875 176.117188 L 552.546875 327.351562 L 552.285156 327.351562 L 541.886719 134.0625 L 531.980469 327.351562 L 531.808594 327.351562 L 521.351562 85.988281 L 511.445312 327.351562 L 511.242188 327.351562 L 500.84375 148.082031 L 490.9375 327.351562 L 490.679688 327.351562 L 480.335938 185.128906 L 470.460938 327.351562 L 470.113281 327.351562 L 459.800781 225.199219 L 449.984375 327.351562 L 449.433594 327.351562 L 439.265625 271.761719 L 429.621094 327.351562 L 428.722656 327.351562 L 418.761719 291.273438 L 409.257812 327.351562 L 408.476562 327.351562 L 398.222656 252.738281 L 388.492188 327.351562 L 388.058594 327.351562 L 377.71875 207.664062 L 367.871094 327.351562 L 367.582031 327.351562 L 357.183594 153.085938 L 347.304688 327.351562 L 347.101562 327.351562 L 336.675781 99.003906 L 326.742188 327.351562 L 326.566406 327.351562 L 316.140625 53.933594 L 306.203125 327.351562 L 306.03125 327.351562 L 295.632812 121.042969 L 285.699219 327.351562 L 285.496094 327.351562 L 275.097656 148.082031 L 265.191406 327.351562 L 264.929688 327.351562 L 254.5625 191.636719 L 244.71875 327.351562 L 244.289062 327.351562 L 234.050781 255.734375 L 224.320312 327.351562 L 223.347656 327.351562 L 213.535156 299.300781 L 204.191406 327.351562 L 203.058594 327.351562 L 193.011719 284.28125 L 183.441406 327.351562 L 182.738281 327.351562 L 172.488281 250.222656 L 162.738281 327.351562 L 162.296875 327.351562 L 151.976562 217.683594 L 142.144531 327.351562 L 141.820312 327.351562 L 131.453125 183.636719 L 121.574219 327.351562 L 121.238281 327.351562 L 110.929688 226.195312 L 101.109375 327.351562 L 100.601562 327.351562 L 90.40625 262.242188 L 80.6875 327.351562 L 79.703125 327.351562 L 69.882812 298.808594 L 60.523438 327.351562 L 59.515625 327.351562 L 49.359375 268.761719 L 39.683594 327.351562 L 39.152344 327.351562 L 28.835938 222.1875 L 19.011719 327.351562 L 18.539062 327.351562 L 8.3125 255.734375 L -1.421875 327.351562 L -36.730469 327.351562 L -36.730469 346.851562 L -1.90625 346.851562 L 8.3125 417.957031 L 18.050781 346.851562 L 18.527344 346.851562 L 28.835938 452.03125 L 38.664062 346.851562 L 39.199219 346.851562 L 49.359375 405.46875 L 59.042969 346.851562 L 60.074219 346.851562 L 69.882812 374.898438 L 79.226562 346.851562 L 80.210938 346.851562 L 90.40625 411.464844 L 100.113281 346.851562 L 100.621094 346.851562 L 110.929688 447.511719 L 120.738281 346.851562 L 121.078125 346.851562 L 131.453125 490.078125 L 141.320312 346.851562 L 141.648438 346.851562 L 151.976562 456.03125 L 161.796875 346.851562 L 162.25 346.851562 L 172.488281 423.984375 L 182.242188 346.851562 L 182.96875 346.851562 L 193.011719 389.9375 L 202.585938 346.851562 L 203.730469 346.851562 L 213.535156 374.898438 L 222.882812 346.851562 L 223.832031 346.851562 L 234.050781 418.480469 L 243.792969 346.851562 L 244.222656 346.851562 L 254.5625 482.050781 L 264.4375 346.851562 L 264.699219 346.851562 L 275.097656 526.125 L 285.003906 346.851562 L 285.207031 346.851562 L 295.632812 553.160156 L 305.539062 346.851562 L 305.710938 346.851562 L 316.140625 620.265625 L 326.074219 346.851562 L 326.25 346.851562 L 336.675781 575.210938 L 346.582031 346.851562 L 346.785156 346.851562 L 357.183594 521.109375 L 367.085938 346.851562 L 367.378906 346.851562 L 377.71875 466.550781 L 387.535156 346.851562 L 388 346.851562 L 398.222656 420.972656 L 407.984375 346.851562 L 408.796875 346.851562 L 418.761719 382.925781 L 428.230469 346.851562 L 429.128906 346.851562 L 439.265625 402.457031 L 448.941406 346.851562 L 449.492188 346.851562 L 459.800781 448.527344 L 469.621094 346.851562 L 469.96875 346.851562 L 480.335938 488.570312 L 490.1875 346.851562 L 490.445312 346.851562 L 500.84375 526.125 L 510.75 346.851562 L 510.953125 346.851562 L 521.351562 588.21875 L 531.285156 346.851562 L 531.488281 346.851562 L 541.886719 540.148438 L 551.792969 346.851562 L 552.023438 346.851562 L 562.421875 497.582031 L 572.300781 346.851562 L 572.617188 346.851562 L 582.929688 444.5 L 592.746094 346.851562 L 593.269531 346.851562 L 603.4375 409.960938 L 613.167969 346.851562 L 613.632812 346.851562 L 623.972656 464.058594 L 633.820312 346.851562 L 634.398438 346.851562 L 644.507812 395.9375 L 654.121094 346.851562 L 654.644531 346.851562 L 665.011719 512.101562 L 674.917969 346.851562 L 675.09375 346.851562 L 685.550781 625.28125 L 695.484375 346.851562 L 695.601562 346.851562 L 706.054688 673.351562 L 716.019531 346.851562 L 716.164062 346.851562 L 726.589844 575.210938 L 736.496094 346.851562 L 736.757812 346.851562 L 747.097656 487.585938 L 756.976562 346.851562 L 757.410156 346.851562 L 767.632812 415.988281 L 777.367188 346.851562 L 778.234375 346.851562 L 788.140625 380.433594 L 797.582031 346.851562 L 798.394531 346.851562 L 808.675781 436.007812 L 818.464844 346.851562 L 818.785156 346.851562 L 829.183594 544.148438 L 839.117188 346.851562 L 839.292969 346.851562 L 849.71875 612.269531 L 859.652344 346.851562 L 859.796875 346.851562 L 870.253906 667.84375 L 880.1875 346.851562 L 880.332031 346.851562 L 890.761719 553.160156 L 900.667969 346.851562 L 900.957031 346.851562 L 911.265625 457.539062 L 921.113281 346.851562 L 921.605469 346.851562 L 931.800781 411.960938 L 941.503906 346.851562 L 942.316406 346.851562 L 952.339844 385.417969 L 961.839844 346.851562 L 962.476562 346.851562 L 972.84375 500.105469 L 982.722656 346.851562 L 982.925781 346.851562 L 993.351562 608.761719 L 1003.285156 346.851562 L 1003.488281 346.851562 L 1013.886719 508.101562 L 1023.765625 346.851562 L 1024.140625 346.851562 L 1034.421875 430.503906 L 1044.183594 346.851562 L 1044.53125 346.851562 L 1054.929688 514.621094 L 1064.835938 346.851562 L 1065.007812 346.851562 L 1075.4375 629.277344 L 1085.398438 346.851562 L 1085.601562 346.851562 L 1095.972656 497.582031 L 1105.847656 346.851562 L 1106.253906 346.851562 L 1116.507812 420.972656 L 1126.238281 346.851562 L 1127.167969 346.851562 L 1137.015625 376.925781 L 1146.398438 346.851562 L 1147.355469 346.851562 L 1157.550781 407.960938 L 1167.253906 346.851562 L 1167.714844 346.851562 L 1178.054688 470.546875 L 1187.902344 346.851562 L 1188.195312 346.851562 L 1198.59375 544.667969 L 1208.496094 346.851562 L 1208.816406 346.851562 L 1219.097656 444.5 L 1228.917969 346.851562 L 1266.65625 346.851562 L 1266.65625 327.351562 " fill-opacity="1" fill-rule="evenodd"/></g></g></g></g></g></svg>